<?xml version="1.0" encoding="utf-8"?>
<!-- Generator: Adobe Illustrator 19.1.0, SVG Export Plug-In . SVG Version: 6.00 Build 0)  -->
<svg version="1.1" id="Layer_1" xmlns="http://www.w3.org/2000/svg" xmlns:xlink="http://www.w3.org/1999/xlink" x="0px" y="0px"
	 viewBox="274.1 44 194.9 246" style="enable-background:new 274.1 44 194.9 246;" xml:space="preserve">
<style type="text/css">
	.st0{opacity:0.6;enable-background:new    ;}
	.st1{opacity:0.7;enable-background:new    ;}
	.st2{opacity:0.83;enable-background:new    ;}
	.st3{font-family:'Garamond';}
	.st4{font-size:200px;}
	.st5{fill:url(#SVGID_1_);}
	.st6{opacity:0.51;}
	.st7{fill:url(#SVGID_2_);}
	.st8{opacity:0.7;}
	.st9{fill:url(#SVGID_3_);}
	.st10{opacity:0.49;}
	.st11{fill:#FFFFFF;}
	.st12{fill:none;stroke:#717171;stroke-width:0.5878;stroke-miterlimit:1;}
	.st13{opacity:0.58;}
</style>
<text transform="matrix(1 0 0 1 -737.9411 265.4704)" class="st0 st4" style="font-family:'MyriadPro-Regular';">G</text>
<text transform="matrix(1 0 0 1 -648.2349 339.0007)" class="st1 st4" style="font-family:'MyriadPro-Regular';">S</text>
<text transform="matrix(1 0 0 1 274.0986 178.4087)" class="st2 st3 st4">G</text>
<g>
	<g>
		
			<linearGradient id="SVGID_1_" gradientUnits="userSpaceOnUse" x1="420.15" y1="276.8" x2="420.15" y2="408.5" gradientTransform="matrix(1 0 0 -1 0 560)">
			<stop  offset="0" style="stop-color:#656565"/>
			<stop  offset="0.618" style="stop-color:#1B1B1B"/>
			<stop  offset="0.6292" style="stop-color:#545454"/>
			<stop  offset="0.9831" style="stop-color:#3E3E3E"/>
		</linearGradient>
		<path class="st5" d="M450.3,159.5c0.5,4.3,0.8,6.8,0.8,7.4l-0.4,8.7c-0.1,3.7-0.3,6.1-0.5,7.1c-0.6,0.3-1.1,0.4-1.5,0.4l-0.9-0.2
			c-2.1-9.1-5.6-15.8-10.6-19.9c-5-4.2-11.1-6.2-18.2-6.2c-7.4,0-13.5,2.1-18.3,6.2c-4.8,4.2-7.1,9-7.1,14.6c0,4.2,1.7,8.1,5,11.6
			s11.8,8.8,25.5,15.8c10.4,5.4,17.9,9.8,22.4,13.2s7.9,7.4,10.2,11.9c2.3,4.5,3.4,9.5,3.4,15.1c0,7-1.8,13.5-5.4,19.6
			s-8.5,10.7-14.6,13.8c-6.1,3.1-14.2,4.6-24.3,4.6c-8.8,0-17.2-1.4-25.3-4.2c-4.8-1.7-7.7-3.1-8.7-4.1s-1.6-2.1-1.6-3.3
			c0-0.7,0.1-1.6,0.2-2.7c0.9-7.7,1.4-14,1.5-18.9c0.1-3.1,0.4-4.8,0.7-5.4c0.3-0.5,0.7-0.7,1.5-0.7c0.6,0,1.1,0.2,1.4,0.6
			c0.4,0.4,0.6,1.2,0.7,2.4c0.7,8,4.4,15.2,11.1,21.5c6.6,6.3,14.2,9.5,22.6,9.5c5.1,0,9.9-1.1,14.2-3.2c4.3-2.1,7.7-5.3,10.2-9.3
			c2.4-4.1,3.7-8,3.7-11.9c0-5.3-1.9-10.1-5.6-14.5s-11.2-9.5-22.4-15.3c-11.2-5.8-18.5-10.1-21.9-12.7c-5.5-4.4-9.6-9-12.3-13.9
			c-2-3.8-3-8.2-3-13.2c0-9,3.6-16.7,10.7-23c7.2-6.3,16.8-9.4,28.8-9.4c6.6,0,12.4,0.7,17.2,2.2C443,154.9,446.6,156.8,450.3,159.5
			z"/>
	</g>
	<g class="st6">
		
			<linearGradient id="SVGID_2_" gradientUnits="userSpaceOnUse" x1="420.15" y1="276.8" x2="420.15" y2="408.5" gradientTransform="matrix(1 0 0 -1 0 560)">
			<stop  offset="0" style="stop-color:#0E0E0E"/>
			<stop  offset="0.5" style="stop-color:#000000"/>
			<stop  offset="0.5213" style="stop-color:#010101"/>
			<stop  offset="0.7262" style="stop-color:#0B0B0B"/>
			<stop  offset="1" style="stop-color:#0E0E0E"/>
		</linearGradient>
		<path class="st7" d="M450.3,159.5c0.5,4.3,0.8,6.8,0.8,7.4l-0.4,8.7c-0.1,3.7-0.3,6.1-0.5,7.1c-0.6,0.3-1.1,0.4-1.5,0.4l-0.9-0.2
			c-2.1-9.1-5.6-15.8-10.6-19.9c-5-4.2-11.1-6.2-18.2-6.2c-7.4,0-13.5,2.1-18.3,6.2c-4.8,4.2-7.1,9-7.1,14.6c0,4.2,1.7,8.1,5,11.6
			s11.8,8.8,25.5,15.8c10.4,5.4,17.9,9.8,22.4,13.2s7.9,7.4,10.2,11.9c2.3,4.5,3.4,9.5,3.4,15.1c0,7-1.8,13.5-5.4,19.6
			s-8.5,10.7-14.6,13.8c-6.1,3.1-14.2,4.6-24.3,4.6c-8.8,0-17.2-1.4-25.3-4.2c-4.8-1.7-7.7-3.1-8.7-4.1s-1.6-2.1-1.6-3.3
			c0-0.7,0.1-1.6,0.2-2.7c0.9-7.7,1.4-14,1.5-18.9c0.1-3.1,0.4-4.8,0.7-5.4c0.3-0.5,0.7-0.7,1.5-0.7c0.6,0,1.1,0.2,1.4,0.6
			c0.4,0.4,0.6,1.2,0.7,2.4c0.7,8,4.4,15.2,11.1,21.5c6.6,6.3,14.2,9.5,22.6,9.5c5.1,0,9.9-1.1,14.2-3.2c4.3-2.1,7.7-5.3,10.2-9.3
			c2.4-4.1,3.7-8,3.7-11.9c0-5.3-1.9-10.1-5.6-14.5s-11.2-9.5-22.4-15.3c-11.2-5.8-18.5-10.1-21.9-12.7c-5.5-4.4-9.6-9-12.3-13.9
			c-2-3.8-3-8.2-3-13.2c0-9,3.6-16.7,10.7-23c7.2-6.3,16.8-9.4,28.8-9.4c6.6,0,12.4,0.7,17.2,2.2C443,154.9,446.6,156.8,450.3,159.5
			z"/>
	</g>
	<g class="st8">
		
			<linearGradient id="SVGID_3_" gradientUnits="userSpaceOnUse" x1="420.15" y1="408.4999" x2="420.15" y2="276.8" gradientTransform="matrix(1 0 0 -1 0 560)">
			<stop  offset="0" style="stop-color:#FFFFFF;stop-opacity:0.77"/>
			<stop  offset="0.2033" style="stop-color:#FFFFFF;stop-opacity:0.65"/>
			<stop  offset="0.3448" style="stop-color:#FFFFFF;stop-opacity:0.65"/>
			<stop  offset="0.3462" style="stop-color:#FFFFFF;stop-opacity:0.65"/>
			<stop  offset="0.511" style="stop-color:#FFFFFF;stop-opacity:0"/>
			<stop  offset="0.5247" style="stop-color:#E1E1E1;stop-opacity:4.472275e-03"/>
			<stop  offset="0.5464" style="stop-color:#B8B8B8;stop-opacity:1.158136e-02"/>
			<stop  offset="0.5708" style="stop-color:#929292;stop-opacity:1.957367e-02"/>
			<stop  offset="0.5974" style="stop-color:#727272;stop-opacity:2.826838e-02"/>
			<stop  offset="0.6268" style="stop-color:#565656;stop-opacity:3.787606e-02"/>
			<stop  offset="0.6599" style="stop-color:#404040;stop-opacity:4.872554e-02"/>
			<stop  offset="0.6986" style="stop-color:#2F2F2F;stop-opacity:6.138782e-02"/>
			<stop  offset="0.7465" style="stop-color:#242424;stop-opacity:7.705475e-02"/>
			<stop  offset="0.8136" style="stop-color:#1D1D1D;stop-opacity:9.902187e-02"/>
			<stop  offset="1" style="stop-color:#1B1B1B;stop-opacity:0.16"/>
		</linearGradient>
		<path class="st9" d="M450.3,159.5c0.5,4.3,0.8,6.8,0.8,7.4l-0.4,8.7c-0.1,3.7-0.3,6.1-0.5,7.1c-0.6,0.3-1.1,0.4-1.5,0.4l-0.9-0.2
			c-2.1-9.1-5.6-15.8-10.6-19.9c-5-4.2-11.1-6.2-18.2-6.2c-7.4,0-13.5,2.1-18.3,6.2c-4.8,4.2-7.1,9-7.1,14.6c0,4.2,1.7,8.1,5,11.6
			s11.8,8.8,25.5,15.8c10.4,5.4,17.9,9.8,22.4,13.2s7.9,7.4,10.2,11.9c2.3,4.5,3.4,9.5,3.4,15.1c0,7-1.8,13.5-5.4,19.6
			s-8.5,10.7-14.6,13.8c-6.1,3.1-14.2,4.6-24.3,4.6c-8.8,0-17.2-1.4-25.3-4.2c-4.8-1.7-7.7-3.1-8.7-4.1s-1.6-2.1-1.6-3.3
			c0-0.7,0.1-1.6,0.2-2.7c0.9-7.7,1.4-14,1.5-18.9c0.1-3.1,0.4-4.8,0.7-5.4c0.3-0.5,0.7-0.7,1.5-0.7c0.6,0,1.1,0.2,1.4,0.6
			c0.4,0.4,0.6,1.2,0.7,2.4c0.7,8,4.4,15.2,11.1,21.5c6.6,6.3,14.2,9.5,22.6,9.5c5.1,0,9.9-1.1,14.2-3.2c4.3-2.1,7.7-5.3,10.2-9.3
			c2.4-4.1,3.7-8,3.7-11.9c0-5.3-1.9-10.1-5.6-14.5s-11.2-9.5-22.4-15.3c-11.2-5.8-18.5-10.1-21.9-12.7c-5.5-4.4-9.6-9-12.3-13.9
			c-2-3.8-3-8.2-3-13.2c0-9,3.6-16.7,10.7-23c7.2-6.3,16.8-9.4,28.8-9.4c6.6,0,12.4,0.7,17.2,2.2C443,154.9,446.6,156.8,450.3,159.5
			z"/>
	</g>
	<g class="st10">
		<g>
			<path class="st11" d="M415.8,282.5c-6.8-0.1-13.4-0.8-20-2.6c-4.1-1.1-10.6-2.4-13.8-5.6c-3.1-3.1-0.5-11.3-0.2-15.6
				c0.2-2.4,0.3-4.8,0.4-7.2c0,0.9-0.1-5.7,0.7-6.4c3-3,3.7,6.7,4.1,8.1c1.6,5.6,4.9,10.5,8.9,14.6c8.3,8.5,19.8,12.6,31.5,9.9
				c16.9-3.8,27.2-23.3,16.3-38c-6.2-8.4-17.1-13.3-26.1-18c-8.7-4.6-17.7-9.1-24.6-16.2c-9.2-9.4-13-22.6-6.5-34.9
				c4.7-8.9,13.7-14.8,23.3-17.1c10.8-2.5,24.1-2.3,34.1,2.7c1,0.5,2.1,1.1,3.1,1.7c2.1,1.3,2.8,1.4,3.3,3.7c0.4,1.5,0.5,3.4,0.6,5
				c0.1,2.7-0.2,5.4-0.4,8.1c-0.1,1.8,0.7,8.8-2.2,7.5c-0.7-0.3-1.9-6.5-2.4-7.8c-1.1-2.6-2.4-5.2-4-7.5c-6.4-9-17.8-12.3-28.5-10.5
				c-15.2,2.6-27.2,20.5-14.9,33.3c7.2,7.5,18.2,12,27.3,16.7c10,5.2,21.7,10.7,28.3,20.2c9.4,13.3,6.4,32.2-4.3,43.8
				C440.8,280.1,428.2,282.4,415.8,282.5v0.7c11.9-0.1,24-2.1,32.9-10.9c7.2-7.1,11.1-17.1,11.1-27.2c0.1-23.4-21.4-32.7-39.2-42.1
				c-8-4.2-18.8-8.7-24.1-16.5c-8-11.6,1.5-24.8,13.1-28.5c10.5-3.3,23.2-0.9,30.6,7.6c3.5,4,5.7,9,7.2,14c0.4,1.5,1,5.3,2.7,2.5
				c0.8-1.2,0.3-5,0.4-6.3c0.1-3.1,0.5-6.2,0.4-9.3c0-1-0.2-1.9-0.3-2.9c-0.1-0.9-0.1-1.9-0.3-2.7c-0.5-2.3-1.2-2.5-3.3-3.7
				c-5.5-3.3-11.4-4.9-17.8-5.5c-11.4-1.1-23.9,0.3-33.3,7.4c-7.9,5.9-12.6,14.7-12.7,24.5c-0.2,19.9,18.2,30.2,33.6,38.3
				c9.6,5.1,21.7,10.4,27.9,19.9c8,12.4,0.9,27.9-11.9,33.4c-13.6,5.9-28.4,1.2-38.1-9.4c-4.4-4.8-7.5-10.6-8.6-17
				c-0.2-1.1-0.2-6.2-2.8-4.8c-1.1,0.5-0.9,2.9-1,3.9c-0.5,6.9-0.9,13.8-1.6,20.7c-0.1,1.1-0.4,2.3-0.2,3.4
				c0.8,4.9,7.8,6.4,11.7,7.7c7.6,2.4,15.5,3.5,23.5,3.6C415.8,283.2,415.8,282.5,415.8,282.5z"/>
		</g>
	</g>
	<text transform="matrix(1 0 0 1 372.6904 279.9999)" class="st12 st3 st4">S</text>
	<g class="st13">
		<g>
			<path d="M450.3,159.6c0.4,3.5,0.8,6.8,0.6,10.3c-0.1,3.3,0.4,8.3-0.6,11.4c-0.4,1.2-0.8,2.7-2.5,1.7c-1-0.6-1.9-6.6-2.4-7.8
				c-1.8-4.6-4.4-8.9-8.2-12.1c-13.6-11.4-43.6-6.8-43.6,14.6c0,6.2,3.7,11.1,8.4,14.7c8.3,6.2,17.9,10.5,27,15.4
				c8.6,4.6,18.2,9.5,24.3,17.3c9.2,11.8,8.4,28.8,0.4,41.1c-13.5,20.9-44.2,20.1-65,12.3c-5.2-2-8.7-3.1-8.4-9.4
				c0.3-5.5,1.1-10.9,1.4-16.4c0-0.9-0.4-11.7,3.6-8c1.4,1.3,1,5,1.5,6.8c0.7,2.9,1.8,5.7,3.3,8.3c5.6,9.8,15.9,17.3,27.3,18.2
				c11.7,0.8,23.4-4.5,28.3-15.5c1.9-4.3,2.6-9,1.6-13.6c-2.2-9.9-11.2-15.8-19.4-20.7c-9.8-5.8-20.8-10.2-29.9-17.2
				c-12.2-9.4-19.8-24.1-12.6-39.5C396.3,148.1,431.3,146.3,450.3,159.6v-0.1c-18.5-12.8-51.1-11.6-63.6,9.4c-3,5.1-4.3,10.9-4,16.8
				c0.5,11.3,8.2,20.5,17.2,26.8c9.7,6.8,20.8,11.2,30.8,17.5c10.2,6.4,20.3,15.8,16.2,29.3c-3.6,11.9-15,18.6-27.1,18.6
				c-12.3,0-23.6-7.7-29.6-18.2c-1.5-2.6-2.6-5.4-3.3-8.3c-0.4-1.5-0.2-5.7-1.5-6.8c-3.9-3.7-3.6,6.5-3.6,8
				c-0.2,5.9-1.5,11.9-1.5,17.9c0-0.5-0.1,1,0,1.3c0.6,4.7,6.5,6.1,10.3,7.4c6.9,2.4,14.2,3.8,21.5,4.1c12,0.6,25-0.9,34.6-8.8
				c14.1-11.7,18.4-34.6,6.8-49.5c-13.4-17.2-38.2-20.3-53.8-34.8c-11.8-10.9-3.6-27.7,10-31.9c11.9-3.7,25.7,0,32.6,10.6
				c1.9,2.9,3.2,6.1,4.3,9.3c0.4,1.3,1,7.2,3.7,4.7c1.4-1.4,0.5-8.3,0.6-10.6c0.2-4.6,0-8.1-0.5-12.8
				C450.3,159.5,450.3,159.5,450.3,159.6z"/>
		</g>
	</g>
</g>
</svg>
